<svg xmlns="http://www.w3.org/2000/svg" viewBox="0 0 100.71 112.82"><defs><style>.cls-1{fill:#86c3d0;}.cls-2{fill:#fff;}</style></defs><g id="API"><path class="cls-1" d="M85.45,57.86,75.07,61.78a1.38,1.38,0,0,1-1.42-.3,1.35,1.35,0,0,1-.31-1.42l3.84-10.41a1.39,1.39,0,0,1,.31-.5L88.74,37.82A43,43,0,1,0,93.4,57.28a43.71,43.71,0,0,0-.53-6.71l-6.92,7A1.29,1.29,0,0,1,85.45,57.86Z"/><path class="cls-1" d="M85.11,56.17l7.43-7.48a43.17,43.17,0,0,0-3-9.23L79,50.09Z"/><polygon class="cls-1" points="74.99 60.13 83.8 56.59 78.46 51.3 74.99 60.13"/><path class="cls-2" d="M85.11,56.17,79,50.09,89.53,39.46c-.25-.55-.51-1.1-.79-1.64L77.49,49.15a1.39,1.39,0,0,0-.31.5L73.34,60.06a1.35,1.35,0,0,0,.31,1.42,1.38,1.38,0,0,0,1.42.3l10.38-3.92a1.29,1.29,0,0,0,.5-.32l6.92-7c-.1-.63-.21-1.26-.33-1.88ZM75,60.13l3.47-8.84,5.34,5.3Z"/><path class="cls-2" d="M37.14,75.79a139.32,139.32,0,0,0,10.5-16,56.27,56.27,0,0,0,3.74-8.49c.46-1.34.85-2.7,1.18-4.07s.86-2.94.39-4.2c-.82-2.18-3.52-1.36-4.61.05-1.77,2.31-2.8,5.59-3.62,8.35a41.78,41.78,0,0,0-1.3,18.43c.15,1,.42,2.28,1.39,2.82,1.19.65,2.23-.24,3-1.07a21.17,21.17,0,0,0,4.71-8.39.63.63,0,0,0-1-.61,9.79,9.79,0,0,0-3.07,7.87.63.63,0,0,0,.79.6,13.61,13.61,0,0,0,7.73-7.36H55.84a2.8,2.8,0,0,0,3.47,1c1.73-.63,2.49-2.48,4.06-3.32,1.78-1,3.9-.22,5.7.28a12.5,12.5,0,0,0,5.28.63c.79-.12.45-1.32-.34-1.21-3.22.48-6.17-1.74-9.39-1.37a5.57,5.57,0,0,0-3.42,1.83c-.83.86-3.11,3.45-4.28,1.56-.22-.35-.88-.45-1.08,0a12.35,12.35,0,0,1-7,6.79l.79.61a8.58,8.58,0,0,1,2.7-7l-1-.6a20.24,20.24,0,0,1-3.39,6.65c-.36.46-.74.91-1.14,1.33a1.59,1.59,0,0,1-.81.58l-.43.19a1.43,1.43,0,0,1-.63-.8,11.61,11.61,0,0,1-.55-3.52A40.94,40.94,0,0,1,45.8,52.19a38.81,38.81,0,0,1,2.81-7.14c.5-.94,2-3.22,3-1.58.62,1-.16,3-.44,4.05a53.88,53.88,0,0,1-5.78,13.71,156.68,156.68,0,0,1-9.36,13.92c-.47.66.61,1.28,1.08.64Z"/><path class="cls-2" d="M50.57,90.8a1.12,1.12,0,0,1-.44-.09l-.67-.28A38.36,38.36,0,0,1,26.27,55.08V40a1.16,1.16,0,0,1,1.16-1.16c7,0,22.44-8.23,22.6-8.32a1.17,1.17,0,0,1,1.09,0c.16.09,15.62,8.32,22.59,8.32A1.16,1.16,0,0,1,74.87,40V55.08A38.34,38.34,0,0,1,51.68,90.43l-.66.28A1.13,1.13,0,0,1,50.57,90.8Zm-22-49.68v14A36,36,0,0,0,50.38,88.3l.19.08.2-.08A36,36,0,0,0,72.55,55.08v-14c-7.1-.66-19.22-6.81-22-8.25C47.81,34.31,35.69,40.46,28.6,41.12Z"/></g></svg>